#N canvas 197 152 1242 613 16;
#X obj 1036 138 vsl 20 170 20 100 0 0 note empty empty 0 -9 0 12 #fcfcfc #000000 #000000 0 0;
#X floatatom 1036 322 5 0 0 0 - - - 0;
#X obj 249 378 noteout 1;
#X obj 249 338 makenote 100 300;
#X obj 276 163 r note;
#X floatatom 249 242 5 0 0 0 - - - 0;
#X obj 249 292 spigot;
#X obj 320 249 tgl 24 0 empty empty empty 0 -12 0 16 #fcfcfc #000000 #000000 0 1;
#X obj 249 205 f;
#X obj 1027 35 ctlin 70 1;
#X floatatom 1025 74 5 0 0 0 - - - 0;
#X obj 252 58 transport-tempo;
#X floatatom 475 247 5 0 0 0 - - - 0;
#X obj 475 297 spigot;
#X obj 546 254 tgl 24 0 empty empty empty 0 -12 0 16 #fcfcfc #000000 #000000 0 1;
#X obj 475 210 f;
#X obj 475 383 noteout 2;
#X floatatom 533 167 5 0 0 0 - - - 0;
#X obj 475 343 makenote 100 800;
#X connect 0 0 1 0;
#X connect 3 0 2 0;
#X connect 3 1 2 1;
#X connect 4 0 8 1;
#X connect 5 0 6 0;
#X connect 6 0 3 0;
#X connect 7 0 6 1;
#X connect 8 0 5 0;
#X connect 9 0 10 0;
#X connect 10 0 0 0;
#X connect 11 0 8 0;
#X connect 11 1 15 0;
#X connect 12 0 13 0;
#X connect 13 0 18 0;
#X connect 14 0 13 1;
#X connect 15 0 12 0;
#X connect 17 0 15 1;
#X connect 18 0 16 0;
#X connect 18 1 16 1;
