#N canvas 113 45 779 609 16;
#X obj 398 30 vsl 24 150 0 127 0 0 seq2n3 empty empty 0 -9 0 16 #fcfcfc #000000 #000000 0 0;
#X obj 305 186 hradio 30 1 0 4 seq2step empty Sequencer\ 2 0 40 0 12 #fcfcfc #000000 #000000 0;
#X obj 40 283 hsl 100 20 1 16 0 0 rhythm1 empty Rhythm\ 1 -3 -10 0 12 #fcfcfc #000000 #000000 0 1;
#X obj 368 30 vsl 24 150 0 127 0 0 seq2n2 empty empty 0 -9 0 16 #fcfcfc #000000 #000000 0 0;
#X obj 338 30 vsl 24 150 0 127 0 0 seq2n1 empty empty 0 -9 0 16 #fcfcfc #000000 #000000 0 0;
#X obj 309 30 vsl 24 150 0 127 0 0 seq2n0 empty empty 0 -9 0 16 #fcfcfc #000000 #000000 0 0;
#X obj 236 30 vsl 24 150 0 127 0 0 seq1n3 empty empty 0 -9 0 16 #fcfcfc #000000 #000000 0 0;
#X obj 143 186 hradio 30 1 0 4 seq1step seq1step Sequencer\ 1 0 40 0 12 #fcfcfc #000000 #000000 0;
#X obj 206 30 vsl 24 150 0 127 0 0 seq1n2 empty empty 0 -9 0 16 #fcfcfc #000000 #000000 0 0;
#X obj 176 30 vsl 24 150 0 127 0 0 seq1n1 empty empty 0 -9 0 16 #fcfcfc #000000 #000000 0 0;
#X obj 147 30 vsl 24 150 0 127 0 0 seq1n0 empty empty 0 -9 0 16 #fcfcfc #000000 #000000 0 0;
#X obj 61 308 tgl 20 0 empty empty Seq\ 1 25 10 0 12 #fcfcfc #000000 #000000 0 1;
#X obj 61 332 tgl 20 0 empty empty Seq\ 2 25 10 0 12 #fcfcfc #000000 #000000 0 1;
#X obj 169 283 hsl 100 20 1 16 0 0 rhythm2 empty Rhythm\ 2 -3 -10 0 12 #fcfcfc #000000 #000000 0 1;
#X obj 190 308 tgl 20 0 test1 empty Seq\ 1 25 10 0 12 #fcfcfc #000000 #000000 0 1;
#X obj 190 332 tgl 20 0 empty empty Seq\ 2 25 10 0 12 #fcfcfc #000000 #000000 0 1;
#X obj 299 283 hsl 100 20 1 16 0 0 rhythm3 empty Rhythm\ 3 -3 -10 0 12 #fcfcfc #000000 #000000 0 1;
#X obj 320 308 tgl 20 0 empty empty Seq\ 1 25 10 0 12 #fcfcfc #000000 #000000 0 1;
#X obj 320 332 tgl 20 0 empty empty Seq\ 2 25 10 0 12 #fcfcfc #000000 #000000 0 1;
#X obj 429 283 hsl 100 20 1 16 0 0 rhythm4 empty Rhythm\ 4 -3 -10 0 12 #fcfcfc #000000 #000000 0 1;
#X obj 450 308 tgl 20 0 empty empty Seq\ 1 25 10 0 12 #fcfcfc #000000 #000000 0 1;
#X obj 450 332 tgl 20 0 empty empty Seq\ 2 25 10 0 12 #fcfcfc #000000 #000000 0 1;
#N canvas 544 132 716 629 main 0;
#X obj 31 63 sel 0 1 2 3;
#X floatatom 31 291 5 0 0 0 - - - 0;
#X obj 31 24 r seq1step;
#X obj 31 102 v seq1n0;
#X obj 31 137 v seq1n1;
#X obj 31 172 v seq1n2;
#X obj 31 207 v seq1n3;
#X obj 31 326 send seq1;
#X obj 256 215 v seq1step;
#X obj 256 177 loadbang;
#X obj 254 267 f;
#X obj 386 225 bng 24 250 50 0 empty empty empty 0 -12 0 16 #fcfcfc #000000 #000000;
#X obj 302 267 + 1;
#X obj 254 305 % 4;
#X floatatom 325 363 5 0 0 0 - - - 0;
#X obj 255 425 s seq1step;
#N canvas 832 160 825 512 tempo 1;
#X obj 274 379 outlet;
#X text 55 6 Can base tempo on the GUI slider or receive it from external transport;
#X obj 438 150 ../utils/transport-tempo;
#X obj 400 212 bng 24 250 50 0 empty empty empty 0 -12 0 16 #fcfcfc #000000 #000000;
#X obj 438 260 spigot;
#X obj 517 180 r play;
#X obj 517 214 != 1;
#X msg 592 180 1;
#X obj 58 129 r play;
#X obj 156 60 r tempo;
#X floatatom 156 127 5 0 0 0 - - - 0;
#X obj 156 94 i;
#X obj 175 166 s temporound;
#X obj 58 326 bng 24 250 50 0 empty empty empty 0 -12 0 16 #fcfcfc #000000 #000000;
#X obj 438 316 bng 24 250 50 0 empty empty empty 0 -12 0 16 #fcfcfc #000000 #000000;
#X obj 58 210 tgl 24 0 empty empty empty 0 -12 0 16 #fcfcfc #000000 #000000 0 1;
#X msg 156 206 tempo \$1 permin;
#X obj 58 273 metro 1 120 permin;
#X text 354 44 Timing is inconsistent with midi clock. Stick with puredata clock for now.;
#X connect 2 0 3 0;
#X connect 2 0 4 0;
#X connect 4 0 0 0;
#X connect 4 0 14 0;
#X connect 5 0 6 0;
#X connect 6 0 4 1;
#X connect 7 0 6 1;
#X connect 8 0 15 0;
#X connect 9 0 11 0;
#X connect 10 0 12 0;
#X connect 10 0 16 0;
#X connect 11 0 10 0;
#X connect 15 0 17 0;
#X connect 16 0 17 0;
#X connect 17 0 13 0;
#X connect 17 0 0 0;
#X restore 375 40 pd tempo;
#N canvas 838 307 702 388 rhythm 0;
#X obj 22 24 r rhythm1;
#X obj 22 57 i;
#X floatatom 22 93 5 0 0 0 - - - 0;
#X obj 22 131 s rthm1round;
#X obj 162 57 i;
#X floatatom 162 93 5 0 0 0 - - - 0;
#X obj 302 57 i;
#X floatatom 302 93 5 0 0 0 - - - 0;
#X obj 442 57 i;
#X floatatom 442 93 5 0 0 0 - - - 0;
#X obj 162 24 r rhythm2;
#X obj 162 131 s rthm2round;
#X obj 302 131 s rthm3round;
#X obj 302 24 r rhythm3;
#X obj 442 131 s rthm4round;
#X obj 442 24 r rhythm4;
#X connect 0 0 1 0;
#X connect 1 0 2 0;
#X connect 2 0 3 0;
#X connect 4 0 5 0;
#X connect 5 0 11 0;
#X connect 6 0 7 0;
#X connect 7 0 12 0;
#X connect 8 0 9 0;
#X connect 9 0 14 0;
#X connect 10 0 4 0;
#X connect 13 0 6 0;
#X connect 15 0 8 0;
#X restore 543 37 pd rhythm;
#X obj 479 143 timer;
#X floatatom 480 217 5 0 0 0 - - - 0;
#X obj 479 180 i;
#X obj 473 291 timer 60 permin;
#X floatatom 475 382 5 0 0 0 - - - 0;
#X obj 474 345 i;
#X connect 0 0 3 0;
#X connect 0 1 4 0;
#X connect 0 2 5 0;
#X connect 0 3 6 0;
#X connect 1 0 7 0;
#X connect 2 0 0 0;
#X connect 3 0 1 0;
#X connect 4 0 1 0;
#X connect 5 0 1 0;
#X connect 6 0 1 0;
#X connect 8 0 10 1;
#X connect 9 0 8 0;
#X connect 10 0 12 0;
#X connect 10 0 13 0;
#X connect 12 0 10 1;
#X connect 13 0 14 0;
#X connect 14 0 15 0;
#X connect 16 0 11 0;
#X connect 16 0 10 0;
#X connect 16 0 18 1;
#X connect 16 0 18 0;
#X connect 16 0 21 0;
#X connect 16 0 21 1;
#X connect 18 0 20 0;
#X connect 20 0 19 0;
#X connect 21 0 23 0;
#X connect 23 0 22 0;
#X restore 605 28 pd main;
#X obj 62 417 bng 30 250 50 0 reset empty Reset 40 15 0 16 #fcfcfc #000000 #000000;
#N canvas 1047 163 763 548 midiout 0;
#X obj 24 67 r seq1;
#X text 43 19 Sequencer 1;
#X text 324 19 Sequencer 2;
#X obj 24 111 f;
#X obj 24 156 makenote 100 300;
#X obj 24 207 noteout 1;
#X obj 314 111 f;
#X obj 314 156 makenote 100 300;
#X obj 314 67 r seq2;
#X obj 314 207 noteout 2;
#X connect 0 0 3 0;
#X connect 3 0 4 0;
#X connect 4 0 5 0;
#X connect 4 1 5 1;
#X connect 6 0 7 0;
#X connect 7 0 9 0;
#X connect 7 1 9 1;
#X connect 8 0 6 0;
#X restore 605 59 pd midiout;
#N canvas 662 211 658 389 midiin 0;
#X obj 11 14 midirealtimein;
#X obj 11 67 sel 248;
#X obj 78 99 bng 24 250 50 0 empty empty empty 0 -12 0 16 #fcfcfc #000000 #000000;
#X text 22 40 ignore clock sync;
#X obj 78 133 s transport;
#X connect 0 0 1 0;
#X connect 1 1 2 0;
#X connect 2 0 4 0;
#X restore 605 90 pd midiin;
#X obj 189 417 tgl 30 0 play transport Play 40 15 0 16 #fcfcfc #000000 #000000 0 1;
#X obj 323 417 hsl 200 30 30 300 0 0 tempo tempo Tempo 210 15 0 16 #fcfcfc #000000 #000000 0 1;
#X floatatom 473 394 5 30 300 0 - temporound - 0;
#X floatatom 499 266 5 1 16 0 - rthm4round - 10;
#X floatatom 369 266 5 1 16 0 - rthm3round - 10;
#X floatatom 239 266 5 1 16 0 - rthm2round - 10;
#X floatatom 110 266 5 1 16 0 - rthm1round - 10;
