#N canvas 14 47 779 609 16;
#X obj 398 30 vsl 24 150 0 127 0 0 seq2n3 seq_init empty 0 -9 0 16 #fcfcfc #000000 #000000 0 0;
#X obj 305 186 hradio 30 1 0 4 seq2step empty Sequencer\ 2 0 40 0 12 #fcfcfc #000000 #000000 0;
#X obj 40 283 hsl 100 20 16 1 0 0 rhythm1 rhtm_init Rhythm\ 1 -3 -10 0 12 #fcfcfc #000000 #000000 0 1;
#X obj 368 30 vsl 24 150 0 127 0 0 seq2n2 seq_init empty 0 -9 0 16 #fcfcfc #000000 #000000 0 0;
#X obj 338 30 vsl 24 150 0 127 0 0 seq2n1 seq_init empty 0 -9 0 16 #fcfcfc #000000 #000000 0 0;
#X obj 309 30 vsl 24 150 0 127 0 0 seq2n0 seq_init empty 0 -9 0 16 #fcfcfc #000000 #000000 0 0;
#X obj 236 30 vsl 24 150 0 127 0 0 seq1n3 seq_init empty 0 -9 0 16 #fcfcfc #000000 #000000 0 0;
#X obj 143 186 hradio 30 1 0 4 seq1step seq1step Sequencer\ 1 0 40 0 12 #fcfcfc #000000 #000000 0;
#X obj 206 30 vsl 24 150 0 127 0 0 seq1n2 seq_init empty 0 -9 0 16 #fcfcfc #000000 #000000 0 0;
#X obj 176 30 vsl 24 150 0 127 0 0 seq1n1 seq_init empty 0 -9 0 16 #fcfcfc #000000 #000000 0 0;
#X obj 147 30 vsl 24 150 0 127 0 0 seq1n0 seq_init empty 0 -9 0 16 #fcfcfc #000000 #000000 0 0;
#X obj 61 308 tgl 20 0 s1r1 empty Seq\ 1 25 10 0 12 #fcfcfc #000000 #000000 0 1;
#X obj 61 332 tgl 20 0 s2r1 empty Seq\ 2 25 10 0 12 #fcfcfc #000000 #000000 0 1;
#X obj 169 283 hsl 100 20 16 1 0 0 rhythm2 rhtm_init Rhythm\ 2 -3 -10 0 12 #fcfcfc #000000 #000000 0 1;
#X obj 190 308 tgl 20 0 s1r2 empty Seq\ 1 25 10 0 12 #fcfcfc #000000 #000000 0 1;
#X obj 190 332 tgl 20 0 s2r2 empty Seq\ 2 25 10 0 12 #fcfcfc #000000 #000000 0 1;
#X obj 299 283 hsl 100 20 16 1 0 0 rhythm3 rhtm_init Rhythm\ 3 -3 -10 0 12 #fcfcfc #000000 #000000 0 1;
#X obj 320 308 tgl 20 0 s1r3 empty Seq\ 1 25 10 0 12 #fcfcfc #000000 #000000 0 1;
#X obj 320 332 tgl 20 0 s2r3 empty Seq\ 2 25 10 0 12 #fcfcfc #000000 #000000 0 1;
#X obj 429 283 hsl 100 20 16 1 0 0 rhythm4 rhtm_init Rhythm\ 4 -3 -10 0 12 #fcfcfc #000000 #000000 0 1;
#X obj 450 308 tgl 20 0 s1r4 empty Seq\ 1 25 10 0 12 #fcfcfc #000000 #000000 0 1;
#X obj 450 332 tgl 20 0 s2r4 empty Seq\ 2 25 10 0 12 #fcfcfc #000000 #000000 0 1;
#N canvas 539 166 939 563 main 1;
#X obj 31 63 sel 0 1 2 3;
#X floatatom 31 274 5 0 0 0 - - - 0;
#X obj 31 24 r seq1step;
#X obj 31 102 v seq1n0;
#X obj 31 137 v seq1n1;
#X obj 31 172 v seq1n2;
#X obj 31 207 v seq1n3;
#X obj 31 308 send seq1;
#X obj 266 77 v seq1step;
#X obj 266 39 loadbang;
#X obj 264 239 f;
#X obj 395 77 bng 24 250 50 0 empty empty empty 0 -12 0 16 #fcfcfc #000000 #000000;
#X obj 312 239 + 1;
#X obj 264 277 % 4;
#X floatatom 264 307 5 0 0 0 - - - 0;
#X obj 264 337 s seq1step;
#N canvas 703 210 825 512 tempo 0;
#X obj 194 379 outlet;
#X text 55 6 Can base tempo on the GUI slider or receive it from external transport;
#X obj 438 150 ../utils/transport-tempo;
#X obj 400 212 bng 24 250 50 0 empty empty empty 0 -12 0 16 #fcfcfc #000000 #000000;
#X obj 438 260 spigot;
#X obj 517 180 r play;
#X obj 517 214 != 1;
#X msg 592 180 1;
#X obj 58 129 r play;
#X obj 156 60 r tempo;
#X floatatom 156 127 5 0 0 0 - - - 0;
#X obj 156 94 i;
#X obj 175 166 s temporound;
#X obj 58 326 bng 24 250 50 0 empty empty empty 0 -12 0 16 #fcfcfc #000000 #000000;
#X obj 438 316 bng 24 250 50 0 empty empty empty 0 -12 0 16 #fcfcfc #000000 #000000;
#X obj 58 210 tgl 24 0 empty empty empty 0 -12 0 16 #fcfcfc #000000 #000000 0 1;
#X msg 156 206 tempo \$1 permin;
#X obj 58 273 metro 1 120 permin;
#X obj 242 77 loadbang;
#X text 395 41 Timing is inconsistent with midi clock. Stick with puredata clock for now.;
#X msg 242 111 30;
#X obj 33 80 inlet;
#X text 199 403 tempo;
#X obj 298 379 outlet;
#X text 313 403 bpm;
#X connect 2 0 3 0;
#X connect 2 0 4 0;
#X connect 4 0 0 0;
#X connect 4 0 14 0;
#X connect 5 0 6 0;
#X connect 6 0 4 1;
#X connect 7 0 6 1;
#X connect 8 0 15 0;
#X connect 9 0 11 0;
#X connect 10 0 12 0;
#X connect 10 0 16 0;
#X connect 10 0 23 0;
#X connect 11 0 10 0;
#X connect 15 0 17 0;
#X connect 16 0 17 0;
#X connect 17 0 13 0;
#X connect 17 0 0 0;
#X connect 18 0 20 0;
#X connect 20 0 10 0;
#X connect 21 0 17 0;
#X restore 375 40 pd tempo;
#X obj 31 240 i;
#X obj 548 41 r reset;
#X msg 548 73 0;
#N canvas 989 465 702 388 rhythmround 0;
#X obj 22 24 r rhythm1;
#X obj 22 57 i;
#X floatatom 22 93 5 0 0 0 - - - 0;
#X obj 22 131 s rthm1round;
#X obj 162 57 i;
#X floatatom 162 93 5 0 0 0 - - - 0;
#X obj 302 57 i;
#X floatatom 302 93 5 0 0 0 - - - 0;
#X obj 442 57 i;
#X floatatom 442 93 5 0 0 0 - - - 0;
#X obj 162 24 r rhythm2;
#X obj 162 131 s rthm2round;
#X obj 302 131 s rthm3round;
#X obj 302 24 r rhythm3;
#X obj 442 131 s rthm4round;
#X obj 442 24 r rhythm4;
#X msg 188 222 1;
#X obj 188 186 loadbang;
#X connect 0 0 1 0;
#X connect 1 0 2 0;
#X connect 2 0 3 0;
#X connect 4 0 5 0;
#X connect 5 0 11 0;
#X connect 6 0 7 0;
#X connect 7 0 12 0;
#X connect 8 0 9 0;
#X connect 9 0 14 0;
#X connect 10 0 4 0;
#X connect 13 0 6 0;
#X connect 15 0 8 0;
#X connect 16 0 3 0;
#X connect 16 0 11 0;
#X connect 16 0 12 0;
#X connect 16 0 14 0;
#X connect 17 0 16 0;
#X restore 765 27 pd rhythmround;
#N canvas 943 168 768 419 init 0;
#X obj 76 158 s seq_init;
#X obj 180 49 bng 24 250 50 0 empty empty empty 0 -12 0 16 #fcfcfc #000000 #000000;
#X obj 189 157 s rhtm_init;
#X msg 189 124 1;
#X msg 76 125 60;
#X msg 312 123 120;
#X obj 312 156 s tempo_init;
#X obj 180 14 loadbang;
#X connect 1 0 4 0;
#X connect 1 0 3 0;
#X connect 1 0 5 0;
#X connect 3 0 2 0;
#X connect 4 0 0 0;
#X connect 5 0 6 0;
#X connect 7 0 1 0;
#X restore 765 62 pd init;
#N canvas 200 208 1061 766 rhythm_seq1 0;
#X obj 345 14 inlet;
#X text 408 14 tempo;
#X obj 408 44 inlet;
#X text 471 44 bpm;
#X floatatom 408 80 5 0 0 0 - - - 0;
#X obj 375 672 outlet;
#X text 448 671 pulse;
#X obj 294 98 r rthm1;
#X obj 288 166 f;
#X msg 111 167 tempo \$1 permin;
#X obj 111 201 metro 1 120 permin;
#X obj 375 638 delay 1;
#X obj 111 234 spigot;
#X obj 36 167 r play;
#X obj 111 273 bng 24 250 50 0 empty empty empty 0 -12 0 16 #fcfcfc #000000 #000000;
#X obj 689 165 f;
#X msg 512 166 tempo \$1 permin;
#X obj 512 200 metro 1 120 permin;
#X obj 512 233 spigot;
#X obj 437 166 r play;
#X obj 512 272 bng 24 250 50 0 empty empty empty 0 -12 0 16 #fcfcfc #000000 #000000;
#X obj 288 447 f;
#X msg 111 448 tempo \$1 permin;
#X obj 111 482 metro 1 120 permin;
#X obj 111 515 spigot;
#X obj 36 448 r play;
#X obj 111 554 bng 24 250 50 0 empty empty empty 0 -12 0 16 #fcfcfc #000000 #000000;
#X obj 698 447 f;
#X msg 521 448 tempo \$1 permin;
#X obj 521 482 metro 1 120 permin;
#X obj 521 515 spigot;
#X obj 446 448 r play;
#X obj 521 554 bng 24 250 50 0 empty empty empty 0 -12 0 16 #fcfcfc #000000 #000000;
#X obj 291 379 r rthm3;
#X obj 711 376 r rthm4;
#X obj 693 95 r rthm2;
#X obj 345 53 bng 24 250 50 0 empty empty empty 0 -12 0 16 #fcfcfc #000000 #000000;
#X obj 692 129 change;
#X obj 708 415 change;
#X obj 289 415 change;
#X obj 293 132 change;
#X obj 355 270 r reset;
#X obj 593 234 r s1r2;
#X obj 602 516 r s1r4;
#X obj 192 516 r s1r3;
#X obj 193 235 r s1r1;
#X connect 0 0 36 0;
#X connect 2 0 4 0;
#X connect 4 0 9 0;
#X connect 4 0 16 0;
#X connect 4 0 28 0;
#X connect 4 0 22 0;
#X connect 7 0 40 0;
#X connect 8 0 10 1;
#X connect 9 0 10 0;
#X connect 10 0 12 0;
#X connect 11 0 5 0;
#X connect 12 0 11 0;
#X connect 12 0 14 0;
#X connect 13 0 10 0;
#X connect 15 0 17 1;
#X connect 16 0 17 0;
#X connect 17 0 18 0;
#X connect 18 0 20 0;
#X connect 18 0 11 0;
#X connect 19 0 17 0;
#X connect 21 0 23 1;
#X connect 22 0 23 0;
#X connect 23 0 24 0;
#X connect 24 0 26 0;
#X connect 24 0 11 0;
#X connect 25 0 23 0;
#X connect 27 0 29 1;
#X connect 28 0 29 0;
#X connect 29 0 30 0;
#X connect 30 0 32 0;
#X connect 30 0 11 0;
#X connect 31 0 29 0;
#X connect 33 0 39 0;
#X connect 34 0 38 0;
#X connect 35 0 37 0;
#X connect 37 0 15 0;
#X connect 38 0 27 0;
#X connect 39 0 21 0;
#X connect 40 0 8 0;
#X connect 41 0 17 0;
#X connect 41 0 29 0;
#X connect 41 0 23 0;
#X connect 41 0 10 0;
#X connect 42 0 18 1;
#X connect 43 0 30 1;
#X connect 44 0 24 1;
#X connect 45 0 12 1;
#X restore 708 147 pd rhythm_seq1;
#N canvas 849 59 935 762 rhythm_v2 1;
#X obj 306 8 inlet;
#X text 369 8 tempo;
#X obj 476 8 inlet;
#X text 539 8 bpm;
#X floatatom 476 44 5 0 0 0 - - - 0;
#X obj 306 47 bng 24 250 50 0 empty empty empty 0 -12 0 16 #fcfcfc #000000 #000000;
#X obj 96 164 r rthm1;
#X obj 306 106 f;
#X obj 350 106 + 1;
#X obj 45 193 mod;
#X floatatom 96 194 5 0 0 0 - - - 0;
#X floatatom 45 228 5 0 0 0 - - - 0;
#X obj 45 271 sel 0;
#X obj 129 454 bng 24 250 50 0 empty empty empty 0 -12 0 16 #fcfcfc #000000 #000000;
#X obj 129 315 spigot;
#X obj 45 314 spigot;
#X obj 45 456 bng 24 250 50 0 empty empty empty 0 -12 0 16 #fcfcfc #000000 #000000;
#X obj 55 346 r s1r1;
#X obj 139 346 r s2r1;
#X obj 229 684 outlet;
#X obj 229 650 delay 1;
#X obj 568 684 outlet;
#X obj 568 650 delay 1;
#X text 302 683 seq1;
#X text 641 683 seq2;
#X obj 245 193 mod;
#X floatatom 296 194 5 0 0 0 - - - 0;
#X floatatom 245 228 5 0 0 0 - - - 0;
#X obj 245 271 sel 0;
#X obj 329 454 bng 24 250 50 0 empty empty empty 0 -12 0 16 #fcfcfc #000000 #000000;
#X obj 329 315 spigot;
#X obj 245 314 spigot;
#X obj 245 456 bng 24 250 50 0 empty empty empty 0 -12 0 16 #fcfcfc #000000 #000000;
#X obj 445 193 mod;
#X floatatom 496 194 5 0 0 0 - - - 0;
#X floatatom 445 228 5 0 0 0 - - - 0;
#X obj 445 271 sel 0;
#X obj 529 454 bng 24 250 50 0 empty empty empty 0 -12 0 16 #fcfcfc #000000 #000000;
#X obj 529 315 spigot;
#X obj 445 314 spigot;
#X obj 445 456 bng 24 250 50 0 empty empty empty 0 -12 0 16 #fcfcfc #000000 #000000;
#X obj 645 193 mod;
#X floatatom 696 194 5 0 0 0 - - - 0;
#X floatatom 645 228 5 0 0 0 - - - 0;
#X obj 645 271 sel 0;
#X obj 729 454 bng 24 250 50 0 empty empty empty 0 -12 0 16 #fcfcfc #000000 #000000;
#X obj 729 315 spigot;
#X obj 645 314 spigot;
#X obj 645 456 bng 24 250 50 0 empty empty empty 0 -12 0 16 #fcfcfc #000000 #000000;
#X obj 296 164 r rthm2;
#X obj 496 164 r rthm3;
#X obj 696 164 r rthm4;
#X obj 255 346 r s1r2;
#X obj 339 346 r s2r2;
#X obj 455 346 r s1r3;
#X obj 539 346 r s2r3;
#X obj 655 346 r s1r4;
#X obj 739 346 r s2r4;
#X connect 0 0 5 0;
#X connect 2 0 4 0;
#X connect 5 0 7 0;
#X connect 6 0 10 0;
#X connect 7 0 8 0;
#X connect 7 0 9 0;
#X connect 7 0 25 0;
#X connect 7 0 33 0;
#X connect 7 0 41 0;
#X connect 8 0 7 1;
#X connect 9 0 11 0;
#X connect 10 0 9 1;
#X connect 11 0 12 0;
#X connect 12 0 15 0;
#X connect 12 0 14 0;
#X connect 13 0 22 0;
#X connect 14 0 13 0;
#X connect 15 0 16 0;
#X connect 16 0 20 0;
#X connect 17 0 15 1;
#X connect 18 0 14 1;
#X connect 20 0 19 0;
#X connect 22 0 21 0;
#X connect 25 0 27 0;
#X connect 26 0 25 1;
#X connect 27 0 28 0;
#X connect 28 0 31 0;
#X connect 28 0 30 0;
#X connect 29 0 22 0;
#X connect 30 0 29 0;
#X connect 31 0 32 0;
#X connect 32 0 20 0;
#X connect 33 0 35 0;
#X connect 34 0 33 1;
#X connect 35 0 36 0;
#X connect 36 0 39 0;
#X connect 36 0 38 0;
#X connect 37 0 22 0;
#X connect 38 0 37 0;
#X connect 39 0 40 0;
#X connect 40 0 20 0;
#X connect 41 0 43 0;
#X connect 42 0 41 1;
#X connect 43 0 44 0;
#X connect 44 0 47 0;
#X connect 44 0 46 0;
#X connect 45 0 22 0;
#X connect 46 0 45 0;
#X connect 47 0 48 0;
#X connect 48 0 20 0;
#X connect 49 0 26 0;
#X connect 50 0 34 0;
#X connect 51 0 42 0;
#X connect 52 0 31 1;
#X connect 53 0 30 1;
#X connect 54 0 39 1;
#X connect 55 0 38 1;
#X connect 56 0 47 1;
#X connect 57 0 46 1;
#X restore 376 136 pd rhythm_v2;
#X obj 421 216 bng 24 250 50 0 empty empty empty 0 -12 0 16 #fcfcfc #000000 #000000;
#X connect 0 0 3 0;
#X connect 0 1 4 0;
#X connect 0 2 5 0;
#X connect 0 3 6 0;
#X connect 1 0 7 0;
#X connect 2 0 0 0;
#X connect 3 0 17 0;
#X connect 4 0 17 0;
#X connect 5 0 17 0;
#X connect 6 0 17 0;
#X connect 8 0 10 1;
#X connect 9 0 8 0;
#X connect 10 0 12 0;
#X connect 10 0 13 0;
#X connect 12 0 10 1;
#X connect 13 0 14 0;
#X connect 14 0 15 0;
#X connect 16 0 11 0;
#X connect 16 0 23 0;
#X connect 16 1 23 1;
#X connect 17 0 1 0;
#X connect 18 0 19 0;
#X connect 18 0 16 0;
#X connect 19 0 10 1;
#X connect 23 0 10 0;
#X connect 23 0 24 0;
#X restore 605 28 pd main;
#X obj 62 417 bng 30 250 50 0 reset reset_all Reset 40 15 0 16 #fcfcfc #000000 #000000;
#N canvas 1047 163 763 548 midiout 1;
#X obj 24 67 r seq1;
#X text 43 19 Sequencer 1;
#X text 324 19 Sequencer 2;
#X obj 24 111 f;
#X obj 24 207 noteout 1;
#X obj 314 111 f;
#X obj 314 67 r seq2;
#X obj 314 207 noteout 2;
#X obj 24 156 makenote 100 100;
#X obj 314 156 makenote 100 100;
#X connect 0 0 3 0;
#X connect 3 0 8 0;
#X connect 5 0 9 0;
#X connect 6 0 5 0;
#X connect 8 0 4 0;
#X connect 8 1 4 1;
#X connect 9 0 7 0;
#X connect 9 1 7 1;
#X restore 605 59 pd midiout;
#N canvas 662 211 658 389 midiin 0;
#X obj 11 14 midirealtimein;
#X obj 11 67 sel 248;
#X obj 78 99 bng 24 250 50 0 empty empty empty 0 -12 0 16 #fcfcfc #000000 #000000;
#X text 22 40 ignore clock sync;
#X obj 78 133 s transport;
#X connect 0 0 1 0;
#X connect 1 1 2 0;
#X connect 2 0 4 0;
#X restore 605 90 pd midiin;
#X obj 189 417 tgl 30 0 play transport Play 40 15 0 16 #fcfcfc #000000 #000000 0 1;
#X obj 323 417 hsl 200 30 10 1000 0 0 tempo tempo_init Tempo 210 15 0 16 #fcfcfc #000000 #000000 0 1;
#X floatatom 473 394 5 30 1000 0 - temporound - 0;
#X floatatom 499 266 5 1 16 0 - rthm4round rthm4 10;
#X floatatom 369 266 5 1 16 0 - rthm3round rthm3 10;
#X floatatom 239 266 5 1 16 0 - rthm2round rthm2 10;
#X floatatom 110 266 5 1 16 0 - rthm1round rthm1 10;
