#N canvas 58 25 762 593 16;
#N canvas 853 22 689 620 main 1;
#X obj 56 13 loadbang;
#X obj 264 159 f;
#X obj 309 159 + 1;
#X obj 264 194 % 4;
#X floatatom 264 228 5 0 0 0 - - - 0;
#N canvas 1029 134 825 512 tempo 0;
#X obj 194 379 outlet;
#X text 55 6 Can base tempo on the GUI slider or receive it from external transport, f 48;
#X obj 438 150 ../utils/transport-tempo;
#X obj 400 212 bng 24 250 50 0 empty empty empty 0 -12 0 16 #fcfcfc #000000 #000000;
#X obj 438 260 spigot;
#X obj 517 180 r play;
#X obj 517 214 != 1;
#X msg 592 180 1;
#X obj 58 129 r play;
#X obj 156 60 r tempo;
#X floatatom 156 127 5 0 0 0 - - - 0;
#X obj 156 94 i;
#X obj 175 166 s temporound;
#X obj 58 326 bng 24 250 50 0 empty empty empty 0 -12 0 16 #fcfcfc #000000 #000000;
#X obj 438 316 bng 24 250 50 0 empty empty empty 0 -12 0 16 #fcfcfc #000000 #000000;
#X obj 58 210 tgl 24 0 empty empty empty 0 -12 0 16 #fcfcfc #000000 #000000 0 1;
#X msg 156 206 tempo \$1 permin;
#X obj 58 273 metro 1 120 permin;
#X obj 242 77 loadbang;
#X text 435 75 Timing is inconsistent with midi clock. Stick with puredata clock for now., f 31;
#X msg 242 111 30;
#X obj 33 80 inlet;
#X text 199 403 tempo;
#X obj 298 379 outlet;
#X text 313 403 bpm;
#X connect 2 0 3 0;
#X connect 2 0 4 0;
#X connect 4 0 14 0;
#X connect 5 0 6 0;
#X connect 6 0 4 1;
#X connect 7 0 6 1;
#X connect 8 0 15 0;
#X connect 9 0 11 0;
#X connect 10 0 12 0;
#X connect 10 0 16 0;
#X connect 10 0 23 0;
#X connect 11 0 10 0;
#X connect 15 0 17 0;
#X connect 16 0 17 0;
#X connect 17 0 13 0;
#X connect 17 0 0 0;
#X connect 18 0 20 0;
#X connect 20 0 10 0;
#X connect 21 0 17 0;
#X restore 298 10 pd tempo;
#X obj 179 12 r reset;
#X msg 179 44 0;
#N canvas 861 45 881 580 gui_display 0;
#X msg 16 255 60;
#X msg 201 257 120;
#X obj 68 131 loadbang;
#X obj 502 24 r rhythm1;
#X obj 502 57 i;
#X obj 642 57 i;
#X obj 502 187 i;
#X obj 642 187 i;
#X obj 642 24 r rhythm2;
#X obj 502 154 r rhythm3;
#X obj 642 154 r rhythm4;
#X msg 216 156 1;
#X obj 502 91 s r1round;
#X obj 642 91 s r2round;
#X obj 502 221 s r3round;
#X obj 642 221 s r4round;
#X obj 179 383 s seq1_note;
#X obj 179 417 s seq2_note;
#X obj 457 314 r seq1_note;
#X obj 457 394 r seq2_note;
#X msg 127 257 100;
#X obj 457 348 s nlen1_display;
#X obj 457 428 s nlen2_display;
#X obj 16 289 s seq1n0;
#X obj 16 421 s seq2n0;
#X obj 26 319 s seq1n1;
#X obj 46 387 s seq1n3;
#X obj 36 353 s seq1n2;
#X obj 26 455 s seq2n1;
#X obj 36 490 s seq2n2;
#X obj 46 524 s seq2n3;
#X obj 303 151 s rhythm4;
#X obj 273 49 s rhythm1;
#X obj 283 83 s rhythm2;
#X obj 293 117 s rhythm3;
#X obj 68 166 t b b b b;
#X text 13 9 Initialise GUI element values and define send and receives for displays., f 23;
#X obj 215 318 s tempo;
#X connect 0 0 23 0;
#X connect 0 0 25 0;
#X connect 0 0 27 0;
#X connect 0 0 26 0;
#X connect 0 0 24 0;
#X connect 0 0 28 0;
#X connect 0 0 29 0;
#X connect 0 0 30 0;
#X connect 1 0 37 0;
#X connect 2 0 35 0;
#X connect 3 0 4 0;
#X connect 4 0 12 0;
#X connect 5 0 13 0;
#X connect 6 0 14 0;
#X connect 7 0 15 0;
#X connect 8 0 5 0;
#X connect 9 0 6 0;
#X connect 10 0 7 0;
#X connect 11 0 31 0;
#X connect 11 0 34 0;
#X connect 11 0 33 0;
#X connect 11 0 32 0;
#X connect 18 0 21 0;
#X connect 19 0 22 0;
#X connect 20 0 16 0;
#X connect 20 0 17 0;
#X connect 35 0 0 0;
#X connect 35 1 20 0;
#X connect 35 2 1 0;
#X connect 35 3 11 0;
#X restore 499 10 pd gui_display;
#N canvas 849 59 935 762 rhythm 0;
#X obj 306 8 inlet;
#X text 369 8 tempo;
#X obj 476 8 inlet;
#X text 539 8 bpm;
#X floatatom 476 44 5 0 0 0 - - - 0;
#X obj 306 47 bng 24 250 50 0 empty empty empty 0 -12 0 16 #fcfcfc #000000 #000000;
#X obj 306 106 f;
#X obj 350 106 + 1;
#X obj 45 193 mod;
#X floatatom 96 194 5 0 0 0 - - - 0;
#X floatatom 45 228 5 0 0 0 - - - 0;
#X obj 45 271 sel 0;
#X obj 129 454 bng 24 250 50 0 empty empty empty 0 -12 0 16 #fcfcfc #000000 #000000;
#X obj 129 315 spigot;
#X obj 45 314 spigot;
#X obj 45 456 bng 24 250 50 0 empty empty empty 0 -12 0 16 #fcfcfc #000000 #000000;
#X obj 55 346 r s1r1;
#X obj 139 346 r s2r1;
#X obj 229 684 outlet;
#X obj 229 650 delay 1;
#X obj 568 684 outlet;
#X obj 568 650 delay 1;
#X text 302 683 seq1;
#X text 641 683 seq2;
#X obj 245 193 mod;
#X floatatom 296 194 5 0 0 0 - - - 0;
#X floatatom 245 228 5 0 0 0 - - - 0;
#X obj 245 271 sel 0;
#X obj 329 454 bng 24 250 50 0 empty empty empty 0 -12 0 16 #fcfcfc #000000 #000000;
#X obj 329 315 spigot;
#X obj 245 314 spigot;
#X obj 245 456 bng 24 250 50 0 empty empty empty 0 -12 0 16 #fcfcfc #000000 #000000;
#X obj 445 193 mod;
#X floatatom 496 194 5 0 0 0 - - - 0;
#X floatatom 445 228 5 0 0 0 - - - 0;
#X obj 445 271 sel 0;
#X obj 529 454 bng 24 250 50 0 empty empty empty 0 -12 0 16 #fcfcfc #000000 #000000;
#X obj 529 315 spigot;
#X obj 445 314 spigot;
#X obj 445 456 bng 24 250 50 0 empty empty empty 0 -12 0 16 #fcfcfc #000000 #000000;
#X obj 645 193 mod;
#X floatatom 696 194 5 0 0 0 - - - 0;
#X floatatom 645 228 5 0 0 0 - - - 0;
#X obj 645 271 sel 0;
#X obj 729 454 bng 24 250 50 0 empty empty empty 0 -12 0 16 #fcfcfc #000000 #000000;
#X obj 729 315 spigot;
#X obj 645 314 spigot;
#X obj 645 456 bng 24 250 50 0 empty empty empty 0 -12 0 16 #fcfcfc #000000 #000000;
#X obj 255 346 r s1r2;
#X obj 339 346 r s2r2;
#X obj 455 346 r s1r3;
#X obj 539 346 r s2r3;
#X obj 655 346 r s1r4;
#X obj 739 346 r s2r4;
#X obj 96 164 r rhythm1;
#X obj 296 164 r rhythm2;
#X obj 496 164 r rhythm3;
#X obj 696 164 r rhythm4;
#X obj 157 194 i;
#X obj 357 194 i;
#X obj 557 194 i;
#X obj 757 194 i;
#X obj 108 8 r reset;
#X obj 28 8 r play;
#X msg 108 40 0;
#X floatatom 55 380 5 0 0 0 - - - 0;
#X floatatom 139 380 5 0 0 0 - - - 0;
#X floatatom 255 380 5 0 0 0 - - - 0;
#X floatatom 339 380 5 0 0 0 - - - 0;
#X floatatom 455 380 5 0 0 0 - - - 0;
#X floatatom 539 380 5 0 0 0 - - - 0;
#X floatatom 655 380 5 0 0 0 - - - 0;
#X floatatom 739 380 5 0 0 0 - - - 0;
#X connect 0 0 5 0;
#X connect 2 0 4 0;
#X connect 5 0 6 0;
#X connect 6 0 7 0;
#X connect 6 0 8 0;
#X connect 6 0 24 0;
#X connect 6 0 32 0;
#X connect 6 0 40 0;
#X connect 7 0 6 1;
#X connect 8 0 10 0;
#X connect 9 0 8 1;
#X connect 10 0 11 0;
#X connect 11 0 14 0;
#X connect 11 0 13 0;
#X connect 12 0 21 0;
#X connect 13 0 12 0;
#X connect 14 0 15 0;
#X connect 15 0 19 0;
#X connect 16 0 65 0;
#X connect 17 0 66 0;
#X connect 19 0 18 0;
#X connect 21 0 20 0;
#X connect 24 0 26 0;
#X connect 25 0 24 1;
#X connect 26 0 27 0;
#X connect 27 0 30 0;
#X connect 27 0 29 0;
#X connect 28 0 21 0;
#X connect 29 0 28 0;
#X connect 30 0 31 0;
#X connect 31 0 19 0;
#X connect 32 0 34 0;
#X connect 33 0 32 1;
#X connect 34 0 35 0;
#X connect 35 0 38 0;
#X connect 35 0 37 0;
#X connect 36 0 21 0;
#X connect 37 0 36 0;
#X connect 38 0 39 0;
#X connect 39 0 19 0;
#X connect 40 0 42 0;
#X connect 41 0 40 1;
#X connect 42 0 43 0;
#X connect 43 0 46 0;
#X connect 43 0 45 0;
#X connect 44 0 21 0;
#X connect 45 0 44 0;
#X connect 46 0 47 0;
#X connect 47 0 19 0;
#X connect 48 0 67 0;
#X connect 49 0 68 0;
#X connect 50 0 69 0;
#X connect 51 0 70 0;
#X connect 52 0 71 0;
#X connect 53 0 72 0;
#X connect 54 0 58 0;
#X connect 55 0 59 0;
#X connect 56 0 60 0;
#X connect 57 0 61 0;
#X connect 58 0 9 0;
#X connect 59 0 25 0;
#X connect 60 0 33 0;
#X connect 61 0 41 0;
#X connect 62 0 64 0;
#X connect 63 0 64 0;
#X connect 64 0 6 1;
#X connect 65 0 14 1;
#X connect 66 0 13 1;
#X connect 67 0 30 1;
#X connect 68 0 29 1;
#X connect 69 0 38 1;
#X connect 70 0 37 1;
#X connect 71 0 46 1;
#X connect 72 0 45 1;
#X restore 264 54 pd rhythm;
#N canvas 1047 163 763 548 midiout 0;
#X text 23 29 Sequencer 1;
#X text 355 29 Sequencer 2;
#X obj 24 111 f;
#X obj 62 289 noteout 1;
#X obj 24 156 makenote 100 100;
#X obj 24 67 inlet;
#X obj 181 111 r seq1_note;
#X obj 24 245 poly 1 1;
#X obj 24 200 pack f f, f 9;
#X text 117 243 monophonic output;
#X obj 357 111 f;
#X obj 357 156 makenote 100 100;
#X obj 357 67 inlet;
#X obj 357 245 poly 1 1;
#X obj 357 200 pack f f, f 9;
#X obj 514 111 r seq2_note;
#X obj 395 289 noteout 2;
#X connect 2 0 4 0;
#X connect 4 0 8 0;
#X connect 4 1 8 1;
#X connect 5 0 2 0;
#X connect 6 0 4 2;
#X connect 7 1 3 0;
#X connect 7 2 3 1;
#X connect 8 0 7 0;
#X connect 10 0 11 0;
#X connect 11 0 14 0;
#X connect 11 1 14 1;
#X connect 12 0 10 0;
#X connect 13 1 16 0;
#X connect 13 2 16 1;
#X connect 14 0 13 0;
#X connect 15 0 11 2;
#X restore 81 540 pd midiout;
#N canvas 822 19 1057 955 midiin 1;
#X obj 17 8 cnv 24 280 350 empty empty empty 20 12 0 16 #dfdfdf #404040 0;
#X floatatom 32 147 5 0 0 0 - - - 0;
#X floatatom 124 148 5 0 0 0 - - - 0;
#X obj 32 113 ctlin;
#X floatatom 211 149 5 0 0 0 - - - 0;
#X obj 104 255 pack f f;
#X obj 104 221 mod 70;
#X obj 32 323 send;
#X msg 104 289 symbol seq\$2n\$1;
#X text 29 19 Ctrls 70-74 control the note values for sequencers. Determine sequencer using channel., f 25;
#X obj 17 670 cnv 24 280 200 empty empty empty 20 12 0 16 #e0e0e0 #404040 0;
#X obj 30 732 midirealtimein;
#X obj 30 765 sel 248;
#X obj 97 797 bng 24 250 50 0 empty empty empty 0 -12 0 16 #fcfcfc #000000 #000000;
#X obj 97 831 s transport;
#X text 28 678 Transport controls Ignore clock sync, f 25;
#X obj 317 774 cnv 24 170 140 empty empty empty 20 12 0 16 #e0e0e0 #404040 0;
#X obj 327 812 notein;
#X obj 327 847 sel 0;
#X obj 327 882 s reset;
#X text 326 779 Reset on note 0;
#X obj 318 8 cnv 24 300 400 empty empty empty 20 12 0 16 #dfdfdf #404040 0;
#X floatatom 333 107 5 0 0 0 - - - 0;
#X floatatom 415 108 5 0 0 0 - - - 0;
#X obj 333 73 ctlin;
#X floatatom 512 109 5 0 0 0 - - - 0;
#X obj 333 369 send;
#X msg 415 265 symbol rhythm\$1;
#X obj 637 7 cnv 24 290 400 empty empty empty 20 12 0 16 #dfdfdf #404040 0;
#X floatatom 652 126 5 0 0 0 - - - 0;
#X floatatom 724 127 5 0 0 0 - - - 0;
#X floatatom 801 128 5 0 0 0 - - - 0;
#X obj 652 271 pack f f;
#X obj 652 369 send;
#X obj 652 92 notein;
#X msg 699 339 symbol s\$2r\$1;
#X obj 652 237 mod 7;
#X text 649 18 Notes 8-11 control rhythm assigments. Determine sequencer using channel., f 26;
#X obj 652 203 spigot;
#X obj 415 231 mod 73;
#X obj 512 188 == 1;
#X obj 333 231 spigot;
#X obj 32 220 spigot;
#X obj 652 305 t b l;
#X obj 665 168 expr $f1<=11 && $f2==0;
#X obj 333 193 spigot;
#X msg 421 335 0 127;
#X msg 510 335 1 16;
#X obj 333 300 ../utils/range-map;
#X obj 421 368 loadbang;
#X obj 16 379 cnv 24 280 270 empty empty empty 20 12 0 16 #e0e0e0 #404040 0;
#X floatatom 31 508 5 0 0 0 - - - 0;
#X floatatom 104 509 5 0 0 0 - - - 0;
#X obj 31 474 ctlin;
#X floatatom 177 510 5 0 0 0 - - - 0;
#X obj 31 542 spigot;
#X obj 177 543 == 2;
#N canvas 774 66 982 809 tempo-ctrl 0;
#X obj 56 151 inlet;
#X obj 514 150 inlet;
#X text 54 128 value;
#X text 518 128 ctrl;
#X text 25 14 Uses three midi CCs to control tempo with varying levels of grain. Add together to get actual tempo. 74 controls 0-1000 \, in increments of 100 \; 75: 0-100 \, increments of 10 \; 76: 0-10 \, increments of 1, f 52;
#X obj 56 242 spigot;
#X obj 369 242 spigot;
#X obj 669 242 spigot;
#X obj 113 195 == 74;
#X obj 426 195 == 75;
#X obj 726 195 == 76;
#X msg 757 330 0 127;
#X obj 669 286 ../utils/range-map;
#X obj 757 374 loadbang;
#X floatatom 669 374 5 0 0 0 - - - 0;
#X msg 457 330 0 127;
#X obj 369 286 ../utils/range-map;
#X obj 457 374 loadbang;
#X msg 144 330 0 127;
#X obj 56 286 ../utils/range-map;
#X obj 144 374 loadbang;
#X floatatom 56 388 5 0 0 0 - - - 0;
#X obj 669 330 i;
#X obj 369 320 i;
#X msg 846 330 0 10;
#X obj 56 320 i;
#X msg 546 330 0 9;
#X msg 233 330 0 9;
#X obj 369 354 * 10;
#X floatatom 369 388 5 0 0 0 - - - 0;
#X obj 56 354 * 100;
#X obj 29 493 f;
#X obj 341 497 f;
#X obj 642 487 f;
#X obj 313 559 expr $f1+$f2+$f3;
#X floatatom 313 603 5 0 0 0 - - - 0;
#X obj 369 442 t b b b;
#X obj 313 646 outlet;
#X connect 0 0 5 0;
#X connect 0 0 6 0;
#X connect 0 0 7 0;
#X connect 1 0 8 0;
#X connect 1 0 9 0;
#X connect 1 0 10 0;
#X connect 5 0 19 0;
#X connect 6 0 16 0;
#X connect 7 0 12 0;
#X connect 8 0 5 1;
#X connect 9 0 6 1;
#X connect 10 0 7 1;
#X connect 11 0 12 1;
#X connect 12 0 22 0;
#X connect 13 0 11 0;
#X connect 13 0 24 0;
#X connect 14 0 33 1;
#X connect 14 0 36 0;
#X connect 15 0 16 1;
#X connect 16 0 23 0;
#X connect 17 0 15 0;
#X connect 17 0 26 0;
#X connect 18 0 19 1;
#X connect 19 0 25 0;
#X connect 20 0 18 0;
#X connect 20 0 27 0;
#X connect 21 0 31 1;
#X connect 21 0 36 0;
#X connect 22 0 14 0;
#X connect 23 0 28 0;
#X connect 24 0 12 2;
#X connect 25 0 30 0;
#X connect 26 0 16 2;
#X connect 27 0 19 2;
#X connect 28 0 29 0;
#X connect 29 0 32 1;
#X connect 29 0 36 0;
#X connect 30 0 21 0;
#X connect 31 0 34 0;
#X connect 32 0 34 1;
#X connect 33 0 34 2;
#X connect 34 0 35 0;
#X connect 35 0 37 0;
#X connect 36 0 31 0;
#X connect 36 1 32 0;
#X connect 36 2 33 0;
#X restore 31 576 pd tempo-ctrl;
#X obj 31 610 s tempo;
#X text 330 19 Channel 1 \, ctrls 74-77 control the rhythms., f 27;
#X text 31 386 Channel 2 \, ctrls 74-76 control the tempo. See tempo-ctrl for more info., f 25;
#X obj 318 428 cnv 24 300 330 empty empty empty 20 12 0 16 #dfdfdf #404040 0;
#X floatatom 333 527 5 0 0 0 - - - 0;
#X floatatom 415 528 5 0 0 0 - - - 0;
#X obj 333 493 ctlin;
#X floatatom 512 529 5 0 0 0 - - - 0;
#X obj 333 719 send;
#X obj 333 613 spigot;
#X msg 421 685 0 127;
#X obj 333 650 ../utils/range-map;
#X obj 421 718 loadbang;
#X text 330 440 Mod wheel controls note length per channel. Ctrl 1, f 27;
#X obj 415 568 == 1;
#X msg 415 615 symbol seq\$1_note;
#X msg 510 685 50 1000;
#X obj 345 688 i;
#X obj 351 149 expr 74<=$f1 && $f1<=77;
#X obj 50 185 expr 70<=$f1 && $f1<=74;
#X obj 637 427 cnv 24 290 330 empty empty empty 20 12 0 16 #dfdfdf #404040 0;
#X floatatom 652 546 5 0 0 0 - - - 0;
#X floatatom 724 547 5 0 0 0 - - - 0;
#X floatatom 801 548 5 0 0 0 - - - 0;
#X obj 652 512 notein;
#X obj 652 633 spigot;
#X text 649 438 Note 15 plays next note in sequence. Determine sequencer using channel., f 26;
#X obj 652 588 expr $f1==15 && $f2==0;
#X obj 652 667 sel 1 2;
#X obj 652 711 outlet;
#X obj 725 711 outlet;
#X connect 1 0 42 0;
#X connect 2 0 6 0;
#X connect 2 0 77 0;
#X connect 3 0 1 0;
#X connect 3 1 2 0;
#X connect 3 2 4 0;
#X connect 4 0 5 1;
#X connect 5 0 8 0;
#X connect 6 0 5 0;
#X connect 8 0 7 1;
#X connect 11 0 12 0;
#X connect 12 1 13 0;
#X connect 13 0 14 0;
#X connect 17 0 18 0;
#X connect 18 0 19 0;
#X connect 22 0 45 0;
#X connect 23 0 39 0;
#X connect 23 0 76 0;
#X connect 24 0 22 0;
#X connect 24 1 23 0;
#X connect 24 2 25 0;
#X connect 25 0 40 0;
#X connect 27 0 26 1;
#X connect 29 0 38 0;
#X connect 29 0 44 0;
#X connect 30 0 44 1;
#X connect 31 0 32 1;
#X connect 32 0 43 0;
#X connect 34 0 29 0;
#X connect 34 1 30 0;
#X connect 34 2 31 0;
#X connect 35 0 33 1;
#X connect 36 0 32 0;
#X connect 38 0 36 0;
#X connect 39 0 27 0;
#X connect 40 0 41 1;
#X connect 41 0 48 0;
#X connect 42 0 7 0;
#X connect 43 0 33 0;
#X connect 43 1 35 0;
#X connect 44 0 38 1;
#X connect 45 0 41 0;
#X connect 46 0 48 1;
#X connect 47 0 48 2;
#X connect 48 0 26 0;
#X connect 49 0 46 0;
#X connect 49 0 47 0;
#X connect 51 0 55 0;
#X connect 52 0 57 1;
#X connect 53 0 51 0;
#X connect 53 1 52 0;
#X connect 53 2 54 0;
#X connect 54 0 56 0;
#X connect 55 0 57 0;
#X connect 56 0 55 1;
#X connect 57 0 58 0;
#X connect 62 0 67 0;
#X connect 63 0 72 0;
#X connect 64 0 62 0;
#X connect 64 1 63 0;
#X connect 64 2 65 0;
#X connect 65 0 73 0;
#X connect 67 0 69 0;
#X connect 68 0 69 1;
#X connect 69 0 75 0;
#X connect 70 0 68 0;
#X connect 70 0 74 0;
#X connect 72 0 67 1;
#X connect 73 0 66 1;
#X connect 74 0 69 2;
#X connect 75 0 66 0;
#X connect 76 0 45 1;
#X connect 77 0 42 1;
#X connect 79 0 85 0;
#X connect 80 0 85 1;
#X connect 81 0 83 0;
#X connect 82 0 79 0;
#X connect 82 1 80 0;
#X connect 82 2 81 0;
#X connect 83 0 86 0;
#X connect 85 0 83 1;
#X connect 86 0 87 0;
#X connect 86 1 88 0;
#X restore 379 54 pd midiin;
#X obj 31 437 v;
#X floatatom 31 505 5 0 0 0 - - - 0;
#X obj 31 471 i;
#X msg 58 402 symbol seq1n\$1;
#X obj 31 368 t b f;
#X obj 31 334 r seq1;
#X obj 264 261 s seq1;
#X obj 56 94 v seq1;
#X obj 211 437 v;
#X floatatom 211 505 5 0 0 0 - - - 0;
#X obj 211 471 i;
#X obj 211 368 t b f;
#X msg 238 402 symbol seq2n\$1;
#X obj 211 334 r seq2;
#X obj 130 94 v seq2;
#X obj 368 159 f;
#X obj 413 159 + 1;
#X obj 368 194 % 4;
#X floatatom 368 228 5 0 0 0 - - - 0;
#X obj 368 261 s seq2;
#X obj 498 391 value seq1n2;
#X obj 498 331 value seq1n0;
#X obj 498 361 value seq1n1;
#X obj 498 421 value seq1n3;
#X obj 498 471 value seq2n0;
#X obj 498 501 value seq2n1;
#X obj 498 531 value seq2n2;
#X obj 498 561 value seq2n3;
#X text 497 255 need these to store values of steps., f 14;
#X obj 264 98 bng 24 250 50 0 empty empty empty 0 -12 0 16 #fcfcfc #000000 #000000;
#X obj 368 98 bng 24 250 50 0 empty empty empty 0 -12 0 16 #fcfcfc #000000 #000000;
#X connect 0 0 19 0;
#X connect 0 0 26 0;
#X connect 1 0 2 0;
#X connect 1 0 3 0;
#X connect 2 0 1 1;
#X connect 3 0 4 0;
#X connect 4 0 18 0;
#X connect 5 0 9 0;
#X connect 5 1 9 1;
#X connect 6 0 7 0;
#X connect 7 0 1 1;
#X connect 7 0 27 1;
#X connect 9 0 41 0;
#X connect 9 1 42 0;
#X connect 11 0 41 0;
#X connect 11 1 42 0;
#X connect 12 0 14 0;
#X connect 13 0 10 0;
#X connect 14 0 13 0;
#X connect 15 0 12 1;
#X connect 16 0 12 0;
#X connect 16 1 15 0;
#X connect 17 0 16 0;
#X connect 19 0 1 1;
#X connect 20 0 22 0;
#X connect 21 0 10 1;
#X connect 22 0 21 0;
#X connect 23 0 20 0;
#X connect 23 1 24 0;
#X connect 24 0 20 1;
#X connect 25 0 23 0;
#X connect 26 0 27 1;
#X connect 27 0 28 0;
#X connect 27 0 29 0;
#X connect 28 0 27 1;
#X connect 29 0 30 0;
#X connect 30 0 31 0;
#X connect 41 0 1 0;
#X connect 42 0 27 0;
#X restore 635 28 pd main;
#X obj 17 19 cnv 24 600 550 empty empty empty 20 12 0 16 #9f9f9f #404040 0;
#X obj 42 459 cnv 24 550 80 empty empty empty 20 12 0 16 #dfdfdf #000000 0;
#X obj 42 329 cnv 24 550 110 empty empty empty 20 12 0 16 #dfdfdf #404040 0;
#X obj 104 38 cnv 24 150 275 empty empty empty 20 12 0 16 #dfdfdf #404040 0;
#X obj 384 38 cnv 24 150 275 empty empty empty 20 12 0 16 #dfdfdf #404040 0;
#X obj 492 105 vsl 24 150 0 127 0 0 seq2n3 seq2n3 empty 0 -9 0 16 #404040 #ffffff #000000 0 0;
#X obj 399 261 hradio 30 1 0 4 seq2 seq2 Sequencer\ 2 0 40 0 12 #dfdfdf #ff0400 #000000 0;
#X obj 74 358 hsl 100 20 16 1 0 0 rhythm1 rhythm1 Rhythm\ 1 -3 -10 0 12 #404040 #ffffff #000000 0 1;
#X obj 462 105 vsl 24 150 0 127 0 0 seq2n2 seq2n2 empty 0 -9 0 16 #404040 #ffffff #000000 0 0;
#X obj 432 105 vsl 24 150 0 127 0 0 seq2n1 seq2n1 empty 0 -9 0 16 #404040 #ffffff #000000 0 0;
#X obj 403 105 vsl 24 150 0 127 0 0 seq2n0 seq2n0 empty 0 -9 0 16 #404040 #ffffff #000000 0 0;
#X obj 212 105 vsl 24 150 0 127 0 0 seq1n3 seq1n3 empty 0 -9 0 16 #404040 #ffffff #000000 0 0;
#X obj 119 261 hradio 30 1 0 4 seq1 seq1 Sequencer\ 1 0 40 0 12 #dfdfdf #ff0400 #000000 0;
#X obj 182 105 vsl 24 150 0 127 0 0 seq1n2 seq1n2 empty 0 -9 0 16 #404040 #ffffff #000000 0 0;
#X obj 152 105 vsl 24 150 0 127 0 0 seq1n1 seq1n1 empty 0 -9 0 16 #404040 #ffffff #000000 0 0;
#X obj 123 105 vsl 24 150 0 127 0 0 seq1n0 seq1n0 empty 0 -9 0 16 #404040 #ffffff #000000 0 0;
#X obj 95 383 tgl 20 0 s1r1 s1r1 Seq\ 1 25 10 0 12 #ffffff #ff0400 #000000 0 1;
#X obj 95 407 tgl 20 0 s2r1 s2r1 Seq\ 2 25 10 0 12 #fcfcfc #ff0400 #000000 0 1;
#X obj 203 358 hsl 100 20 16 1 0 0 rhythm2 rhythm2 Rhythm\ 2 -3 -10 0 12 #404040 #ffffff #000000 0 1;
#X obj 224 383 tgl 20 0 s1r2 s1r2 Seq\ 1 25 10 0 12 #fcfcfc #ff0400 #000000 0 1;
#X obj 224 407 tgl 20 0 s2r2 s2r2 Seq\ 2 25 10 0 12 #fcfcfc #ff0400 #000000 0 1;
#X obj 333 358 hsl 100 20 16 1 0 0 rhythm3 rhythm3 Rhythm\ 3 -3 -10 0 12 #404040 #ffffff #000000 0 1;
#X obj 354 383 tgl 20 0 s1r3 s1r3 Seq\ 1 25 10 0 12 #fcfcfc #ff0400 #000000 0 1;
#X obj 354 407 tgl 20 0 s2r3 s2r3 Seq\ 2 25 10 0 12 #fcfcfc #ff0400 #000000 0 1;
#X obj 463 358 hsl 100 20 16 1 0 0 rhythm4 rhythm4 Rhythm\ 4 -3 -10 0 12 #404040 #ffffff #000000 0 1;
#X obj 484 383 tgl 20 0 s1r4 s1r4 Seq\ 1 25 10 0 12 #fcfcfc #ff0400 #000000 0 1;
#X obj 484 407 tgl 20 0 s2r4 s2r4 Seq\ 2 25 10 0 12 #fcfcfc #ff0400 #000000 0 1;
#X obj 72 492 bng 30 250 50 0 reset reset_all Reset 40 15 0 16 #ffffff #000000 #000000;
#X obj 199 492 tgl 30 0 play transport Play 40 15 0 16 #fcfcfc #000000 #000000 0 1;
#X obj 323 492 hsl 200 30 10 1000 0 0 tempo tempo Tempo 210 15 0 16 #404040 #ffffff #000000 0 1;
#X floatatom 473 469 5 30 1000 0 - temporound - 0;
#X floatatom 533 341 5 1 16 0 - r4round none 10;
#X floatatom 403 341 5 1 16 0 - r3round none 10;
#X floatatom 273 341 5 1 16 0 - r2round none 10;
#X floatatom 144 341 5 1 16 0 - r1round none 10;
#X obj 129 61 hsl 100 20 50 1000 0 0 seq1_note seq1_note Note\ Length\ (ms) -3 30 0 12 #404040 #ffffff #000000 0 1;
#X obj 409 61 hsl 100 20 50 1000 0 0 seq2_note seq2_note Note\ Length\ (ms) -3 30 0 12 #404040 #ffffff #000000 0 1;
#X floatatom 479 44 5 1 16 0 - nlen2_display none 10;
#X floatatom 199 44 5 1 16 0 - nlen1_display none 10;
