#N canvas 298 173 777 502 16;
#X obj 22 218 inlet;
#X obj 191 216 inlet;
#X obj 407 217 inlet;
#X text 21 188 value;
#X text 189 185 range from;
#X text 403 188 range to;
#X obj 191 251 unpack f f;
#X obj 407 251 unpack f f;
#X floatatom 22 253 5 0 0 0 - - - 0;
#X floatatom 191 286 5 0 0 0 - - - 0;
#X floatatom 288 289 5 0 0 0 - - - 0;
#X floatatom 407 283 5 0 0 0 - - - 0;
#X floatatom 504 283 5 0 0 0 - - - 0;
#X text 17 13 From StackOverflow \; output = output_start + ((output_end - output_start) / (input_end - input_start)) * (input - input_start), f 58;
#X text 20 86 f1 = input \; f2 \, f3 = input start \, end \; f4 \, f5 = output start \, end;
#X obj 22 351 expr $f4 + (($f5 - $f4) / ($f3 - $f2)) * ($f1 - $f2);
#X obj 22 405 outlet;
#X connect 0 0 8 0;
#X connect 1 0 6 0;
#X connect 2 0 7 0;
#X connect 6 0 9 0;
#X connect 6 1 10 0;
#X connect 7 0 11 0;
#X connect 7 1 12 0;
#X connect 8 0 15 0;
#X connect 9 0 15 1;
#X connect 10 0 15 2;
#X connect 11 0 15 3;
#X connect 12 0 15 4;
#X connect 15 0 16 0;
