#N canvas 348 153 1094 648 16;
#X obj 103 13 midirealtimein;
#X obj 170 87 bng 24 250 50 0 empty empty empty 0 -12 0 16 #fcfcfc #000000 #000000;
#X obj 127 131 + 1;
#X obj 83 131 f;
#X msg 121 87 0;
#X obj 83 178 spigot;
#X obj 170 131 tgl 24 0 empty empty empty 0 -12 0 16 #fcfcfc #000000 #000000 0 1;
#X obj 103 54 sel 248;
#X text 233 51 248 = midi clock sync. Else \, simple on/off.;
#X obj 83 270 sel 0;
#X obj 83 314 bng 24 250 50 0 empty empty empty 0 -12 0 16 #fcfcfc #000000 #000000;
#X text 148 226 24 ticks per quarter note;
#X obj 83 359 outlet;
#X obj 205 304 sel 0;
#X obj 205 348 bng 24 250 50 0 empty empty empty 0 -12 0 16 #fcfcfc #000000 #000000;
#X obj 205 393 outlet;
#X obj 205 260 % 96;
#X obj 83 226 % 24;
#X text 271 261 96 ticks per bar;
#X connect 0 0 7 0;
#X connect 1 0 4 0;
#X connect 1 0 6 0;
#X connect 2 0 3 1;
#X connect 3 0 2 0;
#X connect 3 0 5 0;
#X connect 4 0 3 1;
#X connect 5 0 17 0;
#X connect 5 0 16 0;
#X connect 6 0 5 1;
#X connect 7 0 3 0;
#X connect 7 1 1 0;
#X connect 9 0 10 0;
#X connect 10 0 12 0;
#X connect 13 0 14 0;
#X connect 14 0 15 0;
#X connect 16 0 13 0;
#X connect 17 0 9 0;
